# WaveFront *.obj file (generated by Autodesk ATF)

mtllib star75.mtl

g Solid2

v -0.750000 -0.060000 0.000000
v -0.750000 0.060000 0.000000
v -0.303381 -0.060000 -0.220419
v -0.303381 -0.060000 0.220419
v -0.303381 0.060000 -0.220419
v -0.303381 0.060000 0.220419
v -0.231763 -0.060000 -0.713292
v -0.231763 -0.060000 0.713292
v -0.231763 0.060000 -0.713292
v -0.231763 0.060000 0.713292
v 0.115881 -0.060000 -0.356646
v 0.115881 -0.060000 0.356646
v 0.115881 0.060000 -0.356646
v 0.115881 0.060000 0.356646
v 0.375000 -0.060000 0.000000
v 0.375000 0.060000 0.000000
v 0.606763 -0.060000 -0.440839
v 0.606763 -0.060000 0.440839
v 0.606763 0.060000 -0.440839
v 0.606763 0.060000 0.440839
vt -22.041946 -30.338137 0.000000
vt 0.000000 -75.000000 0.000000
vt 22.041946 -30.338137 0.000000
vt 71.329239 -23.176275 0.000000
vt 35.664619 11.588138 0.000000
vt 44.083893 60.676273 0.000000
vt 0.000000 37.500000 0.000000
vt -44.083893 60.676273 0.000000
vt -35.664619 11.588138 0.000000
vt -71.329239 -23.176275 0.000000
vt 49.804913 -6.000000 0.000000
vt 49.804913 6.000000 0.000000
vt 0.000000 6.000000 0.000000
vt 0.000000 -6.000000 0.000000
vt 49.804913 -6.000000 0.000000
vt 49.804913 6.000000 0.000000
vt 0.000000 6.000000 0.000000
vt 0.000000 -6.000000 0.000000
vt 49.804913 -6.000000 0.000000
vt 49.804913 6.000000 0.000000
vt 0.000000 6.000000 0.000000
vt 0.000000 -6.000000 0.000000
vt 49.804913 -6.000000 0.000000
vt 49.804913 6.000000 0.000000
vt 0.000000 6.000000 0.000000
vt 0.000000 -6.000000 0.000000
vt 49.804913 -6.000000 0.000000
vt 49.804913 6.000000 0.000000
vt 0.000000 6.000000 0.000000
vt 0.000000 -6.000000 0.000000
vt 49.804913 -6.000000 0.000000
vt 49.804913 6.000000 0.000000
vt 0.000000 6.000000 0.000000
vt 0.000000 -6.000000 0.000000
vt 49.804913 -6.000000 0.000000
vt 49.804913 6.000000 0.000000
vt 0.000000 6.000000 0.000000
vt 0.000000 -6.000000 0.000000
vt 49.804913 -6.000000 0.000000
vt 49.804913 6.000000 0.000000
vt 0.000000 6.000000 0.000000
vt 0.000000 -6.000000 0.000000
vt 49.804913 -6.000000 0.000000
vt 49.804913 6.000000 0.000000
vt 0.000000 6.000000 0.000000
vt 0.000000 -6.000000 0.000000
vt 49.804913 -6.000000 0.000000
vt 49.804913 6.000000 0.000000
vt 0.000000 6.000000 0.000000
vt 0.000000 -6.000000 0.000000
vt 0.000000 -75.000000 0.000000
vt 22.041946 -30.338137 0.000000
vt 71.329239 -23.176275 0.000000
vt 35.664619 11.588138 0.000000
vt 44.083893 60.676273 0.000000
vt 0.000000 37.500000 0.000000
vt -44.083893 60.676273 0.000000
vt -35.664619 11.588138 0.000000
vt -71.329239 -23.176275 0.000000
vt -22.041946 -30.338137 0.000000
vn 0.000000 -100.000000 0.000000
vn 0.000000 -100.000000 0.000000
vn 0.000000 -100.000000 0.000000
vn 0.000000 -100.000000 0.000000
vn 0.000000 -100.000000 0.000000
vn 0.000000 -100.000000 0.000000
vn 0.000000 -100.000000 0.000000
vn 0.000000 -100.000000 0.000000
vn 0.000000 -100.000000 0.000000
vn 0.000000 -100.000000 0.000000
vn -44.256571 0.000000 -89.673609
vn -44.256571 0.000000 -89.673609
vn -44.256571 0.000000 -89.673609
vn -44.256571 0.000000 -89.673609
vn -98.960704 0.000000 -14.379832
vn -98.960704 0.000000 -14.379832
vn -98.960704 0.000000 -14.379832
vn -98.960704 0.000000 -14.379832
vn 71.608639 0.000000 -69.801170
vn 71.608639 0.000000 -69.801170
vn 71.608639 0.000000 -69.801170
vn 71.608639 0.000000 -69.801170
vn -16.904506 0.000000 -98.560834
vn -16.904506 0.000000 -98.560834
vn -16.904506 0.000000 -98.560834
vn -16.904506 0.000000 -98.560834
vn 88.513142 0.000000 46.534112
vn 88.513142 0.000000 46.534112
vn 88.513142 0.000000 46.534112
vn 88.513142 0.000000 46.534112
vn 88.513142 0.000000 -46.534112
vn 88.513142 0.000000 -46.534112
vn 88.513142 0.000000 -46.534112
vn 88.513142 0.000000 -46.534112
vn -16.904506 0.000000 98.560834
vn -16.904506 0.000000 98.560834
vn -16.904506 0.000000 98.560834
vn -16.904506 0.000000 98.560834
vn 71.608639 0.000000 69.801170
vn 71.608639 0.000000 69.801170
vn 71.608639 0.000000 69.801170
vn 71.608639 0.000000 69.801170
vn -98.960704 0.000000 14.379832
vn -98.960704 0.000000 14.379832
vn -98.960704 0.000000 14.379832
vn -98.960704 0.000000 14.379832
vn -44.256571 0.000000 89.673609
vn -44.256571 0.000000 89.673609
vn -44.256571 0.000000 89.673609
vn -44.256571 0.000000 89.673609
vn 0.000000 100.000000 0.000000
vn 0.000000 100.000000 0.000000
vn 0.000000 100.000000 0.000000
vn 0.000000 100.000000 0.000000
vn 0.000000 100.000000 0.000000
vn 0.000000 100.000000 0.000000
vn 0.000000 100.000000 0.000000
vn 0.000000 100.000000 0.000000
vn 0.000000 100.000000 0.000000
vn 0.000000 100.000000 0.000000
usemtl 191,191,191
f 1/2/2 3/3/3 4/1/1
f 4/1/1 3/3/3 12/9/9
f 4/1/1 12/9/9 8/10/10
f 7/4/4 11/5/5 3/3/3
f 3/3/3 11/5/5 12/9/9
f 17/6/6 15/7/7 11/5/5
f 11/5/5 15/7/7 12/9/9
f 15/7/7 18/8/8 12/9/9
f 2/12/12 5/13/13 1/11/11
f 1/11/11 5/13/13 3/14/14
f 5/16/16 9/17/17 3/15/15
f 3/15/15 9/17/17 7/18/18
f 9/20/20 13/21/21 7/19/19
f 7/19/19 13/21/21 11/22/22
f 13/24/24 19/25/25 11/23/23
f 11/23/23 19/25/25 17/26/26
f 19/28/28 16/29/29 17/27/27
f 17/27/27 16/29/29 15/30/30
f 16/32/32 20/33/33 15/31/31
f 15/31/31 20/33/33 18/34/34
f 20/36/36 14/37/37 18/35/35
f 18/35/35 14/37/37 12/38/38
f 14/40/40 10/41/41 12/39/39
f 12/39/39 10/41/41 8/42/42
f 10/44/44 6/45/45 8/43/43
f 8/43/43 6/45/45 4/46/46
f 6/48/48 2/49/49 4/47/47
f 4/47/47 2/49/49 1/50/50
f 2/51/51 6/52/52 5/60/60
f 5/60/60 6/52/52 13/58/58
f 5/60/60 13/58/58 9/59/59
f 10/53/53 14/54/54 6/52/52
f 6/52/52 14/54/54 13/58/58
f 20/55/55 16/56/56 14/54/54
f 14/54/54 16/56/56 13/58/58
f 16/56/56 19/57/57 13/58/58

# 20 vertices
# 60 texture params
# 60 normals
# 36 facets

# 1 groups
